mastitorrents.com
 
http://mastitorrents.com/forums/index.php

Source: DUS ka Warehouse

Subs: English Muxed


General
Complete name                    : C:\Users\SK1\Desktop\Akrosh - 2010 - 480p DVDRip X264 Untouch AC3 5.1 Audio ESubs {Team DUS}\Akrosh - 2010 - 480p DVDRip X264 Untouch AC3 5.1 Audio ESubs {Team DUS}.mkv
Format                           : Matroska
File size                        : 1.36 GiB
Duration                         : 2h 25mn
Overall bit rate                 : 1 334 Kbps
Encoded date                     : UTC 2011-01-11 14:29:59
Writing application              : mkvmerge v4.0.0 ('The Stars were mine') built on Jun  6 2010 16:18:42
Writing library                  : libebml v1.0.0 + libmatroska v1.0.0

Video
ID                               : 1
Format                           : AVC
Format/Info                      : Advanced Video Codec
Format profile                   : High@L3.0
Format settings, CABAC           : Yes
Format settings, ReFrames        : 4 frames
Codec ID                         : V_MPEG4/ISO/AVC
Duration                         : 2h 25mn
Bit rate                         : 891 Kbps
Width                            : 720 pixels
Height                           : 320 pixels
Display aspect ratio             : 2.25:1
Frame rate                       : 23.976 fps
Color space                      : YUV
Chroma subsampling               : 4:2:0
Bit depth                        : 8 bits
Scan type                        : Progressive
Bits/(Pixel*Frame)               : 0.161
Stream size                      : 896 MiB (64%)
Writing library                  : x264 core 98 r1649 c54c47d
Language                         : English

Audio
ID                               : 2
Format                           : AC-3
Format/Info                      : Audio Coding 3
Mode extension                   : CM (complete main)
Codec ID                         : A_AC3
Duration                         : 2h 25mn
Bit rate mode                    : Constant
Bit rate                         : 448 Kbps
Channel(s)                       : 6 channels
Channel positions                : Front: L C R, Side: L R, LFE
Sampling rate                    : 48.0 KHz
Bit depth                        : 16 bits
Compression mode                 : Lossy
Stream size                      : 467 MiB (34%)
Language                         : Hindi